# Blender v2.90.0 OBJ File: ''
# www.blender.org
mtllib GizmoRotate.mtl
o Cylinder
v -0.000000 -0.148227 -1.015206
v -0.000000 0.148227 -0.994917
v 0.198057 -0.148227 -0.995699
v 0.194099 0.148227 -0.975800
v 0.388503 -0.148227 -0.937928
v 0.380738 0.148227 -0.919184
v 0.564018 -0.148227 -0.844113
v 0.552746 0.148227 -0.827243
v 0.717859 -0.148227 -0.717859
v 0.703513 0.148227 -0.703513
v 0.844113 -0.148227 -0.564018
v 0.827243 0.148227 -0.552746
v 0.937928 -0.148227 -0.388503
v 0.919183 0.148227 -0.380738
v 0.995699 -0.148227 -0.198057
v 0.975800 0.148227 -0.194099
v 1.015206 -0.148227 0.000000
v 0.994917 0.148227 0.000000
v 0.252786 0.148227 -1.270839
v 0.000000 0.148227 -1.295736
v 0.495857 0.148227 -1.197104
v 0.719873 0.148227 -1.077365
v 0.916224 0.148227 -0.916224
v 1.077365 0.148227 -0.719872
v 1.197104 0.148227 -0.495857
v 1.270839 0.148227 -0.252786
v 1.295736 0.148227 0.000000
v 0.000000 -0.148227 -1.295736
v 0.252786 -0.148227 -1.270839
v 0.495857 -0.148227 -1.197104
v 0.719873 -0.148227 -1.077365
v 0.916224 -0.148227 -0.916224
v 1.077365 -0.148227 -0.719872
v 1.197104 -0.148227 -0.495857
v 1.270839 -0.148227 -0.252786
v 1.295736 -0.148227 0.000000
vt 1.000000 0.500000
vt 1.000000 1.000000
vt 0.968750 1.000000
vt 0.968750 0.500000
vt 0.937500 1.000000
vt 0.937500 0.500000
vt 0.906250 1.000000
vt 0.906250 0.500000
vt 0.875000 1.000000
vt 0.875000 0.500000
vt 0.843750 1.000000
vt 0.843750 0.500000
vt 0.812500 1.000000
vt 0.812500 0.500000
vt 0.781250 1.000000
vt 0.781250 0.500000
vt 0.750000 1.000000
vt 0.750000 0.500000
vt 0.250000 0.434281
vt 0.285952 0.430741
vt 0.296822 0.485388
vt 0.250000 0.490000
vt 0.320521 0.420254
vt 0.341844 0.471731
vt 0.352381 0.403224
vt 0.383337 0.449553
vt 0.380307 0.380307
vt 0.419706 0.419706
vt 0.403224 0.352381
vt 0.449553 0.383337
vt 0.420254 0.320521
vt 0.471731 0.341844
vt 0.430740 0.285952
vt 0.485388 0.296822
vt 0.434281 0.250000
vt 0.490000 0.250000
vt 0.786685 0.434426
vt 0.750000 0.438039
vt 0.750000 0.490000
vt 0.796822 0.485388
vt 0.821960 0.423726
vt 0.841844 0.471731
vt 0.854469 0.406349
vt 0.883337 0.449553
vt 0.882964 0.382964
vt 0.919706 0.419706
vt 0.906349 0.354469
vt 0.949553 0.383337
vt 0.923726 0.321959
vt 0.971731 0.341844
vt 0.934426 0.286685
vt 0.985388 0.296822
vt 0.938039 0.250000
vt 0.990000 0.250000
vn 0.0980 0.0000 -0.9952
vn 0.2903 0.0000 -0.9569
vn 0.4714 0.0000 -0.8819
vn 0.6344 0.0000 -0.7730
vn 0.7730 0.0000 -0.6344
vn 0.8819 0.0000 -0.4714
vn 0.9569 0.0000 -0.2903
vn 0.9952 0.0000 -0.0980
vn 0.0000 1.0000 -0.0000
vn 0.0000 -1.0000 0.0000
vn -1.0000 0.0000 -0.0000
vn -0.0978 -0.0680 0.9929
vn -0.2896 -0.0680 0.9547
vn -0.4703 -0.0680 0.8799
vn -0.6329 -0.0680 0.7712
vn -0.7712 -0.0680 0.6329
vn -0.8799 -0.0680 0.4703
vn -0.9547 -0.0680 0.2896
vn -0.9929 -0.0680 0.0978
vn 0.0000 0.0000 1.0000
usemtl None
s off
f 28/1/1 20/2/1 19/3/1 29/4/1
f 29/4/2 19/3/2 21/5/2 30/6/2
f 30/6/3 21/5/3 22/7/3 31/8/3
f 31/8/4 22/7/4 23/9/4 32/10/4
f 32/10/5 23/9/5 24/11/5 33/12/5
f 33/12/6 24/11/6 25/13/6 34/14/6
f 34/14/7 25/13/7 26/15/7 35/16/7
f 35/16/8 26/15/8 27/17/8 36/18/8
f 2/19/9 4/20/9 19/21/9 20/22/9
f 4/20/9 6/23/9 21/24/9 19/21/9
f 6/23/9 8/25/9 22/26/9 21/24/9
f 8/25/9 10/27/9 23/28/9 22/26/9
f 10/27/9 12/29/9 24/30/9 23/28/9
f 12/29/9 14/31/9 25/32/9 24/30/9
f 14/31/9 16/33/9 26/34/9 25/32/9
f 16/33/9 18/35/9 27/36/9 26/34/9
f 3/37/10 1/38/10 28/39/10 29/40/10
f 5/41/10 3/37/10 29/40/10 30/42/10
f 7/43/10 5/41/10 30/42/10 31/44/10
f 9/45/10 7/43/10 31/44/10 32/46/10
f 11/47/10 9/45/10 32/46/10 33/48/10
f 13/49/10 11/47/10 33/48/10 34/50/10
f 15/51/10 13/49/10 34/50/10 35/52/10
f 17/53/10 15/51/10 35/52/10 36/54/10
f 28/39/11 1/38/11 2/19/11 20/22/11
f 4/20/12 2/19/12 1/38/12 3/37/12
f 6/23/13 4/20/13 3/37/13 5/41/13
f 8/25/14 6/23/14 5/41/14 7/43/14
f 10/27/15 8/25/15 7/43/15 9/45/15
f 12/29/16 10/27/16 9/45/16 11/47/16
f 14/31/17 12/29/17 11/47/17 13/49/17
f 16/33/18 14/31/18 13/49/18 15/51/18
f 18/35/19 16/33/19 15/51/19 17/53/19
f 36/54/20 27/36/20 18/35/20 17/53/20
